<?xml version="1.0" standalone="no"?>
<!DOCTYPE svg PUBLIC "-//W3C//DTD SVG 1.1//EN" "http://www.w3.org/Graphics/SVG/1.1/DTD/svg11.dtd">
<svg t="1678255109698" class="icon" viewBox="0 0 1024 1024" version="1.1" xmlns="http://www.w3.org/2000/svg" p-id="3666" xmlns:xlink="http://www.w3.org/1999/xlink" width="16" height="16">
	<path d="M38.96 303.027l337.611 112.537-166.294 429.24L38.96 303.027m-24.275-28.648v16.558l193.729 612.654 193.73-500.059L14.685 274.379z" p-id="3667">
	</path>
	<path d="M207.889 920.172L9.185 291.786v-25.038l400.173 133.391-201.469 520.033zM20.185 290.087L208.94 887.01l185.992-480.085L20.185 282.01v8.077z m189.566 571.298L30.462 294.397 383.784 412.17 209.751 861.385zM47.458 311.657l163.345 516.565 158.556-409.266L47.458 311.657zM454.432 451.168l242.818 72.845v178.178L279.179 889.299l175.253-438.131m-2.613-21.142h-9.933l-198.7 496.746 473.563-211.945V509.505l-264.93-79.479z" p-id="3668">
	</path>
	<path d="M233.034 937.342l205.129-512.816h14.463l269.623 80.887v212.979l-489.215 218.95zM445.61 435.526L253.337 916.203l457.912-204.94V513.597l-260.237-78.071h-5.402zM269.027 899.868l182.166-455.413 251.557 75.467v185.834L269.027 899.868zM457.67 457.882L289.33 878.729l402.42-180.103V528.105l-234.08-70.223zM612.534 99.762l56.684 348.398-177.99-56.75L612.534 99.762m8.179-70.442L465.065 403.533l228.503 72.857-70.919-435.881-1.936-11.189z" p-id="3669">
	</path>
	<path d="M700.437 484.353l-242.75-77.399L622.904 9.729l5.164 29.842 72.369 444.782z m-227.992-84.24L686.7 468.428 618.466 49.044 472.445 400.113z m203.641 56.009l-192.237-61.293L614.865 79.837l61.221 376.285z m-177.479-68.133l163.742 52.208-52.146-320.511-111.596 268.303z" p-id="3670">
	</path>
	<path d="M688.805 152.006l260.069 373.691-214.62-70.696-45.449-302.995M657.14 72.371l59.61 397.395 281.488 92.727L657.14 72.371z" p-id="3671">
	</path>
	<path d="M1012.161 572.87l-300.348-98.939-0.503-3.349L648.209 49.91l363.952 522.96zM721.687 465.602l262.629 86.515L666.07 94.832l55.617 370.77z m241.11 70.472l-233.479-76.909-0.503-3.349-48.94-326.271 282.922 406.529zM739.19 450.836l195.761 64.484-237.216-340.853 41.455 276.369z" p-id="3672">
	</path>
	<path d="M763.848 550.913l177.141 59.045-177.141 59.048V550.913m-19.5-27.056v172.205l258.307-86.103-258.307-86.102z" p-id="3673">
	</path>
	<path d="M738.848 703.693V516.227l281.199 93.733-281.199 93.733z m11-172.205v156.943l235.414-78.472-235.414-78.471z m8.5 145.149V543.282l200.033 66.676-200.033 66.679z m11-118.093v102.831l154.248-51.417-154.248-51.414z" p-id="3674">
	</path>
	<path d="M938.88 685.643l-132.423 235.42-43.306-170.813 175.729-64.607m39.487-30.425h-13.244l-225.192 82.791 59.612 235.125 178.824-317.916z" p-id="3675">
	</path>
	<path d="M797.593 987.82l-64.211-253.264 230.763-84.839h23.627L797.593 987.82z m-51.114-246.359l55.014 216.986 167.47-297.729h-2.86l-219.624 80.743z m58.028 194.289l-47.904-188.951 194.389-71.469-146.485 260.42zM769.7 753.703l38.707 152.674 118.361-210.422L769.7 753.703z" p-id="3676">
	</path>
</svg>
