<?xml version="1.0" standalone="no"?><!DOCTYPE svg PUBLIC "-//W3C//DTD SVG 1.1//EN" "http://www.w3.org/Graphics/SVG/1.1/DTD/svg11.dtd"><svg t="1677847042627" class="icon" viewBox="0 0 1024 1024" version="1.1" xmlns="http://www.w3.org/2000/svg" p-id="642" width="16" height="16" xmlns:xlink="http://www.w3.org/1999/xlink"><path d="M126.848 85.333333c398.336-14.677333 647.253333 60.8 742.613333 235.562667 87.552 160.512 72.96 312.149333-42.24 445.994667l98.986667 98.944a42.666667 42.666667 0 0 1-60.373333 60.330666l-256-256a42.666667 42.666667 0 0 1 60.330666-60.330666l96.554667 96.554666c88.32-105.514667 97.109333-217.6 27.818667-344.618666-72.576-133.12-279.893333-199.936-625.664-192.298667-17.493333 488.533333 135.68 692.309333 464.64 641.706667a42.666667 42.666667 0 0 1 12.970666 84.309333C244.650667 957.354667 55.808 689.92 85.376 126.208A42.538667 42.538667 0 0 1 126.848 85.333333z" fill="#ffffff" p-id="643"></path></svg>