<?xml version="1.0" standalone="no"?>
<!DOCTYPE svg PUBLIC "-//W3C//DTD SVG 1.1//EN" "http://www.w3.org/Graphics/SVG/1.1/DTD/svg11.dtd">
<svg t="1678156410424" class="icon" viewBox="0 0 1024 1024" version="1.1" xmlns="http://www.w3.org/2000/svg" p-id="2724" xmlns:xlink="http://www.w3.org/1999/xlink" width="16" height="16">
	<path d="M714.2912 428.5952c25.463467 0 35.908267 7.714133 58.0608 36.608l83.234133 107.912533h-1.4336a132.642133 132.642133 0 0 1 21.367467 72.260267v178.244267h-71.509333c-11.5712 40.669867-48.366933 68.9664-90.453334 68.9664-42.120533 0-78.916267-28.296533-90.4704-68.9664h-199.850666c-11.5712 40.669867-48.366933 68.9664-90.4704 68.9664s-78.882133-28.279467-90.453334-68.932267a88.456533 88.456533 0 0 1-67.584-26.368 90.794667 90.794667 0 0 1-25.9072-69.12l0.017067-278.6304a88.917333 88.917333 0 0 1 25.105067-70.382933 86.033067 86.033067 0 0 1 69.034666-25.531734h253.764267c51.2 0 80.776533 26.3168 86.9888 74.973867h130.56z m-344.064 379.136a40.618667 40.618667 0 0 0-18.670933-45.346133 39.2192 39.2192 0 0 0-47.837867 6.587733 40.823467 40.823467 0 0 0-6.144 48.759467 39.867733 39.867733 0 0 0 34.440533 20.0192 39.816533 39.816533 0 0 0 38.229334-30.020267z m159.0784-358.656c0-33.194667-5.973333-41.250133-33.160533-41.250133H254.856533c-32.802133 0-51.575467 13.755733-51.575466 41.250133v280.302933c0 30.0544 10.24 40.3456 39.697066 40.3456h1.092267c11.5712-40.686933 48.366933-68.983467 90.453333-68.983466 42.120533 0 78.916267 28.296533 90.487467 68.983466h104.874667l-0.580267-320.648533z m223.197867 358.656a40.618667 40.618667 0 0 0-18.670934-45.346133 39.2192 39.2192 0 0 0-47.854933 6.587733 40.823467 40.823467 0 0 0-6.144 48.759467 39.867733 39.867733 0 0 0 34.440533 20.0192 39.816533 39.816533 0 0 0 38.229334-30.020267z m68.846933-170.052267a55.893333 55.893333 0 0 0-14.062933-38.8608l-76.117334-98.850133a53.8624 53.8624 0 0 0-39.150933-15.6672h-107.0592V769.706667h39.0144c11.554133-40.686933 48.349867-68.983467 90.453333-68.983467 42.120533 0 78.8992 28.296533 90.4704 68.983467h16.452267v-132.0448z" p-id="2725">
	</path>
	<path d="M717.0048 614.4h30.481067c11.690667-1.297067 20.514133-10.837333 20.514133-22.186667 0-11.332267-8.823467-20.872533-20.514133-22.186666h-68.590934v-44.373334c1.024-8.533333-3.1232-16.861867-10.666666-21.435733a23.893333 23.893333 0 0 0-24.695467 0 22.0672 22.0672 0 0 0-10.666667 21.4528v88.149333h84.138667V614.4z m-326.485333-356.693333l20.4288-26.743467a3.6864 3.6864 0 0 0 0-2.628267 15.189333 15.189333 0 0 1 3.618133-11.758933 16.366933 16.366933 0 0 1 11.3152-5.5808c8.840533-1.211733 17.032533 4.693333 18.295467 13.226667 1.262933 8.516267-4.881067 16.401067-13.7216 17.6128a5.495467 5.495467 0 0 0-3.959467 2.645333c-6.4 8.226133-13.1072 16.469333-19.5072 24.9856l2.133333 1.757867 75.605334 54.357333a10.069333 10.069333 0 0 1 2.133333 16.452267 114.244267 114.244267 0 0 1-60.9792 39.953066 119.927467 119.927467 0 0 1-105.7792-19.0976 108.7488 108.7488 0 0 1-42.069333-58.760533 110.6944 110.6944 0 0 1 18.909866-101.376 10.205867 10.205867 0 0 1 7.918934-3.703467c3.089067 0 6.024533 1.365333 7.918933 3.720534 25.002667 16.452267 50.005333 34.372267 74.683733 51.421866 1.160533 1.058133 2.184533 2.235733 3.072 3.515734z m73.7792 78.7456l-156.381867-111.650134c-23.8592 41.506133-12.117333 93.610667 27.4432 121.856 39.543467 28.245333 94.685867 23.876267 128.938667-10.205866z m42.052266-127.812267a31.197867 31.197867 0 0 1-7.304533-2.645333l-70.724267-51.114667a9.728 9.728 0 0 1-2.133333-14.097067 10.6496 10.6496 0 0 1 14.933333-2.048l70.417067 51.0976c3.5328 2.3552 5.12 6.6048 3.959467 10.581334a10.257067 10.257067 0 0 1-8.840534 7.338666l-0.3072 0.887467z m-82.602666-39.3728c2.6624 0.682667 5.2224 1.655467 7.6288 2.935467l48.162133 34.679466a9.437867 9.437867 0 0 1 2.133333 14.097067 10.6496 10.6496 0 0 1-14.933333 2.048l-46.6432-34.645333a9.796267 9.796267 0 0 1-3.976533-10.888534 10.1888 10.1888 0 0 1 7.6288-7.338666v-0.887467z" p-id="2726">
	</path>
	<path d="M477.866667 343.978667c-38.109867 37.2736-99.4816 42.052267-143.496534 11.1616-44.032-30.890667-57.088-87.893333-30.549333-133.2736L477.866667 343.978667z" p-id="2727">
	</path>
</svg>
