<?xml version="1.0" standalone="no"?><!DOCTYPE svg PUBLIC "-//W3C//DTD SVG 1.1//EN" "http://www.w3.org/Graphics/SVG/1.1/DTD/svg11.dtd"><svg t="1678346706924" class="icon" viewBox="0 0 1024 1024" version="1.1" xmlns="http://www.w3.org/2000/svg" p-id="1947" xmlns:xlink="http://www.w3.org/1999/xlink" width="16" height="16"><path d="M86.229333 0C41.258667 0 4.736 37.674667 4.736 84.181333v855.637334c0 46.506667 36.565333 84.181333 81.493333 84.181333H937.813333c44.970667 0 81.493333-37.717333 81.493334-84.181333V84.181333C1019.306667 37.674667 982.784 0 937.813333 0H86.186667zM430.933333 198.314667a30.72 30.72 0 0 1 12.970667 5.418666 51.029333 51.029333 0 0 1 15.189333 15.914667 9.045333 9.045333 0 0 1 3.584 6.954667c7.04 16.554667 5.76 36.565333-6.357333 51.328-8.106667 9.898667-18.304 13.013333-27.648 11.221333a10.282667 10.282667 0 0 1-4.096 1.706667c-17.493333 5.546667-37.717333-9.301333-42.410667-28.288-2.773333-11.093333-3.712-28.757333 3.242667-38.741334a15.658667 15.658667 0 0 1 3.498667-3.669333 39.125333 39.125333 0 0 1 2.133333-11.264c3.285333-9.130667 10.922667-9.130667 18.133333-6.314667a23.125333 23.125333 0 0 1 3.84-0.256 82.688 82.688 0 0 1 6.741334 0.341334 11.818667 11.818667 0 0 1 11.178666-4.352z m359.68 0c4.181333 0.512 8.704 2.56 12.970667 5.418666a51.029333 51.029333 0 0 1 15.146667 15.914667 9.045333 9.045333 0 0 1 3.584 6.954667c7.082667 16.554667 5.802667 36.565333-6.314667 51.328-8.106667 9.898667-18.346667 13.013333-27.648 11.221333a10.282667 10.282667 0 0 1-4.096 1.706667c-17.493333 5.546667-37.76-9.301333-42.410667-28.288-2.773333-11.093333-3.712-28.757333 3.242667-38.741334a15.658667 15.658667 0 0 1 3.498667-3.669333 38.826667 38.826667 0 0 1 2.090666-11.264c3.285333-9.130667 10.922667-9.130667 18.090667-6.314667a24.32 24.32 0 0 1 3.882667-0.256 82.688 82.688 0 0 1 6.784 0.341334 11.818667 11.818667 0 0 1 11.136-4.352z m-561.450666 6.826666c9.557333-0.554667 19.669333 2.688 27.690666 8.448a45.610667 45.610667 0 0 1 9.813334 9.514667 64.768 64.768 0 0 1 2.517333 1.664c14.549333 10.410667 13.312 28.970667 3.157333 42.325333l-0.170666 0.341334a38.826667 38.826667 0 0 1-38.272 23.808c-12.885333-0.341333-26.069333-3.584-34.986667-11.562667-8.533333-6.101333-14.506667-15.189333-14.165333-26.752a5.589333 5.589333 0 0 1 3.925333-5.418667 44.458667 44.458667 0 0 1 14.592-25.6 30.037333 30.037333 0 0 1 25.898667-16.768z m370.432 0.128c9.557333-0.597333 19.669333 2.56 27.648 8.32a45.610667 45.610667 0 0 1 9.770666 9.557334 64.768 64.768 0 0 1 2.474667 1.706666c14.592 10.410667 13.44 28.970667 3.242667 42.325334l-0.213334 0.256a38.698667 38.698667 0 0 1-38.186666 23.808c-12.885333-0.341333-26.197333-3.584-35.072-11.562667a31.146667 31.146667 0 0 1-14.08-26.752 5.589333 5.589333 0 0 1 3.925333-5.333333 44.373333 44.373333 0 0 1 14.506667-25.6 30.08 30.08 0 0 1 26.026666-16.768z m-353.365334 21.162667a24.021333 24.021333 0 0 1 1.450667 1.706667l0.469333 0.213333a5.376 5.376 0 0 1 3.754667 3.242667 25.429333 25.429333 0 0 1 9.6 5.333333 28.117333 28.117333 0 0 0-3.328-5.76 49.536 49.536 0 0 0-11.946667-4.736z m370.346667 0a24.021333 24.021333 0 0 1 1.408 1.706667l0.512 0.213333c1.664 0.298667 2.986667 1.621333 3.754667 3.242667a25.429333 25.429333 0 0 1 9.6 5.333333 28.117333 28.117333 0 0 0-3.370667-5.76 49.194667 49.194667 0 0 0-11.904-4.736z m-194.261333 5.077333a81.578667 81.578667 0 0 0-0.213334 12.586667c3.2-1.792 3.456-7.253333 2.730667-11.178667a13.738667 13.738667 0 0 0-2.517333-1.408z m359.594666 0a82.901333 82.901333 0 0 0-0.170666 12.586667c3.242667-1.792 3.413333-7.253333 2.688-11.178667l-0.853334-0.597333a12.928 12.928 0 0 0-1.664-0.853333zM236.8 241.066667l-3.669333 1.194666 0.426666 1.706667c2.432-1.365333 5.674667-1.194667 7.466667 1.194667a18.56 18.56 0 0 0-0.128-2.432 14.293333 14.293333 0 0 1-3.2-0.981334c-0.341333-0.170667-0.597333-0.426667-0.896-0.682666z m370.346667 0l-3.669334 1.194666 0.469334 1.706667c2.432-1.365333 5.717333-1.194667 7.509333 1.194667a18.56 18.56 0 0 0-0.170667-2.432 14.293333 14.293333 0 0 1-3.157333-0.981334 6.528 6.528 0 0 1-0.981333-0.682666z m-385.365334 3.754666c0.128 0.725333 0.213333 1.536 0.426667 2.261334a37.888 37.888 0 0 0 0.981333 3.328c-1.109333-1.237333-1.621333-3.114667-1.408-5.546667z m370.346667 0.085334a36.949333 36.949333 0 0 0 1.408 5.546666c-1.109333-1.237333-1.621333-3.072-1.408-5.546666z m-135.68 0.853333l-0.469333 0.725333a16.213333 16.213333 0 0 1-5.546667 10.112 7.808 7.808 0 0 0-0.042667 0.256 5.077333 5.077333 0 0 1-1.706666 5.077334 38.4 38.4 0 0 1-1.237334 2.730666 79.445333 79.445333 0 0 1-6.314666 12.16 24.405333 24.405333 0 0 0 9.258666-8.746666c4.266667-6.656 6.272-14.506667 6.058667-22.314667z m359.68 0l-0.512 0.725333a16.128 16.128 0 0 1-5.504 10.112c0 0.042667 0 0.170667-0.085333 0.256 0.554667 1.834667-0.213333 3.754667-1.664 5.077334a49.621333 49.621333 0 0 1-1.237334 2.730666 79.445333 79.445333 0 0 1-6.314666 12.16 24.149333 24.149333 0 0 0 9.216-8.746666c4.266667-6.656 6.314667-14.506667 6.101333-22.314667z m-425.002667 1.664a56.064 56.064 0 0 0 0.170667 5.674667c0.725333 7.893333 3.328 16.341333 9.344 21.888a25.173333 25.173333 0 0 0 3.669333 2.858666 44.288 44.288 0 0 1-6.101333-11.861333 109.44 109.44 0 0 1-7.082667-18.56z m359.68 0a56.064 56.064 0 0 0 0.170667 5.674667c0.725333 7.893333 3.328 16.341333 9.301333 21.888a25.173333 25.173333 0 0 0 3.669334 2.858666 44.970667 44.970667 0 0 1-6.058667-11.861333 107.605333 107.605333 0 0 1-7.082667-18.56z m-497.92 6.229333a18.517333 18.517333 0 0 1-1.194666 2.773334l1.536 2.901333a10.154667 10.154667 0 0 0-0.341334-5.674667z m370.389334 0a21.76 21.76 0 0 1-1.237334 2.773334l1.493334 2.901333a10.282667 10.282667 0 0 0-0.256-5.674667z m-387.84 17.493334a26.026667 26.026667 0 0 1-7.68 1.621333l-0.554667 0.64a22.698667 22.698667 0 0 0 9.770667-0.554667 21.12 21.12 0 0 1-1.493334-1.706666z m370.346666 0a26.026667 26.026667 0 0 1-7.68 1.621333l-0.554666 0.64a22.698667 22.698667 0 0 0 9.728-0.554667 26.666667 26.666667 0 0 1-1.493334-1.706666z m-183.808 98.133333a45.269333 45.269333 0 0 1 44.885334 45.738667v366.08c0 25.258667-20.053333 45.738667-44.885334 45.738666-24.874667 0-45.013333-20.48-45.013333-45.738666v-366.08c0-25.258667 20.138667-45.738667 45.013333-45.781334z m359.722667 0a45.312 45.312 0 0 1 44.928 45.738667v366.08c0 25.258667-20.053333 45.738667-44.928 45.738666-24.832 0-44.970667-20.48-44.970667-45.738666v-366.08c0-25.258667 20.138667-45.738667 44.970667-45.781334z m-552.533333 4.48c9.557333-0.554667 19.669333 2.56 27.690666 8.32a45.866667 45.866667 0 0 1 9.813334 9.6 79.829333 79.829333 0 0 1 2.517333 1.664c14.549333 10.410667 13.312 28.970667 3.157333 42.325333l-0.170666 0.256a38.826667 38.826667 0 0 1-38.272 23.808c-12.885333-0.298667-26.069333-3.541333-34.986667-11.562666-8.533333-6.058667-14.506667-15.104-14.165333-26.666667a5.589333 5.589333 0 0 1 3.925333-5.418667 44.458667 44.458667 0 0 1 14.592-25.6 29.909333 29.909333 0 0 1 25.898667-16.768z m370.432 0c9.557333-0.554667 19.669333 2.56 27.648 8.32a45.866667 45.866667 0 0 1 9.770666 9.6 79.829333 79.829333 0 0 1 2.474667 1.664c14.592 10.410667 13.44 28.970667 3.242667 42.325333l-0.213334 0.256a38.698667 38.698667 0 0 1-38.186666 23.808c-12.885333-0.298667-26.197333-3.541333-35.072-11.562666a31.018667 31.018667 0 0 1-14.08-26.666667 5.589333 5.589333 0 0 1 3.925333-5.418667 44.373333 44.373333 0 0 1 14.506667-25.6 30.08 30.08 0 0 1 26.026666-16.768z m-353.365334 21.162667a24.192 24.192 0 0 1 1.450667 1.834666l0.469333 0.085334a5.376 5.376 0 0 1 3.754667 3.242666 25.557333 25.557333 0 0 1 9.6 5.333334 28.117333 28.117333 0 0 0-3.328-5.674667 51.626667 51.626667 0 0 0-11.946667-4.821333z m370.346667 0a24.192 24.192 0 0 1 1.408 1.834666l0.512 0.085334c1.664 0.298667 2.986667 1.621333 3.754667 3.242666a25.557333 25.557333 0 0 1 9.6 5.333334 28.117333 28.117333 0 0 0-3.370667-5.674667 51.2 51.2 0 0 0-11.904-4.821333zM236.8 409.6l-3.669333 1.152 0.426666 1.749333c2.432-1.365333 5.674667-1.237333 7.466667 1.152a18.645333 18.645333 0 0 0-0.128-2.304 13.781333 13.781333 0 0 1-3.2-1.109333c-0.341333-0.170667-0.597333-0.426667-0.896-0.64z m370.346667 0l-3.669334 1.152 0.469334 1.749333c2.432-1.365333 5.717333-1.237333 7.509333 1.152a18.645333 18.645333 0 0 0-0.170667-2.304 13.781333 13.781333 0 0 1-3.157333-1.109333 6.528 6.528 0 0 1-0.981333-0.64z m-385.365334 3.84a24.533333 24.533333 0 0 0 1.365334 5.248 6.997333 6.997333 0 0 1-1.365334-5.290667z m370.346667 0a24.533333 24.533333 0 0 0 1.322667 5.248 7.210667 7.210667 0 0 1-1.322667-5.290667z m-339.242667 8.789333a17.877333 17.877333 0 0 1-1.194666 2.688 783.274667 783.274667 0 0 1 1.536 2.986667 10.112 10.112 0 0 0-0.341334-5.674667z m370.389334 0a17.877333 17.877333 0 0 1-1.237334 2.688 783.274667 783.274667 0 0 1 1.493334 2.986667 10.282667 10.282667 0 0 0-0.256-5.674667z m-387.84 17.450667a26.752 26.752 0 0 1-7.68 1.578667v0.085333l-0.554667 0.64a23.381333 23.381333 0 0 0 9.770667-0.64 26.026667 26.026667 0 0 1-1.493334-1.706667z m370.346666 0a26.752 26.752 0 0 1-7.68 1.578667v0.085333l-0.554666 0.64a23.381333 23.381333 0 0 0 9.728-0.64l-1.493334-1.706667z m-363.733333 112.64c24.832 0 44.928 20.48 44.928 45.781333v182.997334c0 25.258667-20.053333 45.738667-44.928 45.738666-24.832 0-45.013333-20.48-45.013333-45.738666v-183.04c0-25.258667 20.181333-45.738667 45.013333-45.738667z m359.765333 0c24.789333 0 44.970667 20.48 44.970667 45.781333v182.997334c0 25.258667-20.181333 45.738667-44.970667 45.738666-24.874667 0-44.928-20.48-44.928-45.738666v-183.04c0-25.258667 20.053333-45.738667 44.928-45.738667z" p-id="1948" ></path></svg>