<?xml version="1.0" standalone="no"?>
<!DOCTYPE svg PUBLIC "-//W3C//DTD SVG 1.1//EN" "http://www.w3.org/Graphics/SVG/1.1/DTD/svg11.dtd">
<svg t="1677847376729" class="icon" viewBox="0 0 1024 1024" version="1.1" xmlns="http://www.w3.org/2000/svg" p-id="5921" xmlns:xlink="http://www.w3.org/1999/xlink" width="16" height="16">
	<path d="M224.60288 768.768a167.36 167.36 0 0 1-200.512-94.016c-3.648-5.44-9.024-27.136-10.88-32.576-104.768-549.76 448-641.92 448-641.92C269.72288 101.504 164.95488 294.976 320.34688 531.84c5.376 9.024 8.96 19.84 12.608 30.72a164.8 164.8 0 0 1-108.352 206.144z m643.072-144.64c63.232 56.064 72.256 150.08 23.488 218.816-3.648 3.584-19.84 21.696-23.488 25.28-415.488 376.192-780.352-48.768-780.352-48.768 186.048 112.064 406.4 101.248 529.28-153.728 5.376-9.088 12.608-18.112 19.84-27.136 59.584-68.736 162.56-74.176 231.232-14.464zM638.23488 25.536c534.72 164.544 355.84 696.256 354.048 698.048 1.856-216.96-117.376-401.472-401.024-376.128-10.816 0-21.632-1.856-32.512-3.648C470.23488 325.76 410.65088 238.912 428.69888 150.4A163.776 163.776 0 0 1 603.93088 18.304c5.44 1.792 28.928 5.44 34.304 7.232z" p-id="5922">
	</path>
</svg>
