<?xml version="1.0" standalone="no"?>
<!DOCTYPE svg PUBLIC "-//W3C//DTD SVG 1.1//EN" "http://www.w3.org/Graphics/SVG/1.1/DTD/svg11.dtd">
<svg t="1677847274839" class="icon" viewBox="0 0 1024 1024" version="1.1" xmlns="http://www.w3.org/2000/svg" p-id="3497" xmlns:xlink="http://www.w3.org/1999/xlink" width="16" height="16">
	<path d="M268.6 63.9C156 63.9 64.4 155.5 64.4 268.1c0 22.1 3.5 43.4 10.1 63.3 0.1 0.4 0.3 0.8 0.4 1.1 0.4 1.1 0.7 2.1 1.1 3.2 0.4 1.2 0.9 2.4 1.3 3.6 0.1 0.2 0.2 0.4 0.2 0.7 6.6 17.6 15.7 34.3 27.1 49.6 0 0.1 0.1 0.1 0.1 0.2 0.9 1.2 1.7 2.3 2.6 3.4 0.2 0.3 0.4 0.5 0.6 0.8 0.7 0.9 1.5 1.8 2.2 2.8 0.5 0.6 0.9 1.1 1.4 1.6 0.5 0.6 1 1.3 1.6 1.9 0.8 1 1.7 1.9 2.5 2.9 0.2 0.2 0.3 0.4 0.5 0.6 6.6 7.4 13.7 14.3 21.3 20.7l3.6 3c0.2 0.1 0.4 0.3 0.5 0.4 1.1 0.8 2.1 1.7 3.2 2.5 0.3 0.2 0.6 0.4 0.9 0.7 1 0.7 1.9 1.5 2.9 2.2 0.4 0.3 0.7 0.5 1.1 0.8 0.9 0.7 1.9 1.3 2.8 2 0.4 0.3 0.8 0.5 1.2 0.8 0.9 0.6 1.9 1.3 2.9 1.9 0.4 0.2 0.7 0.5 1.1 0.7 1 0.7 2 1.3 3 1.9l0.9 0.6c1.1 0.7 2.3 1.4 3.4 2.1l0.6 0.3c1.3 0.8 2.6 1.5 4 2.3 25.5 14.2 54.3 23.1 84.9 25.2v0.3h5.5c2.8 0.1 5.7 0.2 8.5 0.2 2.9 0 5.7-0.1 8.6-0.2h172.5c12.8 0 23.2-10.4 23.2-23.2V272.8c0-1.5 0.1-3.1 0.1-4.6 0-112.7-91.6-204.3-204.2-204.3z m156 204.2c0 3.7-0.1 7.6-0.4 11.4 0 0.6-0.1 1.2-0.1 1.7v143H265.5c-84.4-1.6-153.1-71.6-153.1-156.1 0-86.1 70-156.1 156.1-156.1s156.1 70 156.1 156.1zM551.1 448.2c0 13.3 10.7 24 24 24h183.1c0.7 0 1.4 0 2-0.1 53.1-1.4 102.8-23 140.1-61 37.7-38.4 58.5-89.2 58.5-143C958.8 155.6 867.2 64 754.7 64s-204.1 91.6-204.1 204.1c0 4.6 0.2 9.3 0.5 14v166.1zM754.7 112c86.1 0 156.1 70 156.1 156.1 0 84.4-68.7 154.5-153.1 156.1H599.1v-143c0-0.6 0-1.2-0.1-1.7-0.3-3.8-0.4-7.7-0.4-11.4 0-86.1 70-156.1 156.1-156.1zM472.8 574.4c0-12.8-10.4-23.2-23.2-23.2H277.1c-2.8-0.1-5.7-0.2-8.6-0.2-2.9 0-5.7 0.1-8.5 0.2h-5.5v0.3c-30.6 2.1-59.4 11-84.9 25.2-1.3 0.7-2.6 1.5-4 2.3-0.2 0.1-0.4 0.2-0.5 0.3-1.1 0.7-2.3 1.4-3.4 2.1l-0.9 0.6c-1 0.6-2 1.3-3 1.9-0.4 0.2-0.7 0.5-1.1 0.7-1 0.6-1.9 1.3-2.9 1.9-0.4 0.3-0.8 0.5-1.2 0.8-0.9 0.7-1.9 1.3-2.8 2-0.4 0.3-0.7 0.5-1.1 0.8-1 0.7-2 1.4-2.9 2.2-0.3 0.2-0.6 0.4-0.9 0.7-1.1 0.8-2.1 1.7-3.2 2.5-0.2 0.1-0.4 0.3-0.5 0.4l-3.6 3c-7.6 6.4-14.7 13.3-21.3 20.7-0.2 0.2-0.3 0.4-0.5 0.6-0.9 1-1.7 1.9-2.5 2.9-0.5 0.6-1 1.3-1.6 1.9-0.5 0.5-0.9 1.1-1.4 1.6-0.7 0.9-1.5 1.8-2.2 2.7-0.2 0.3-0.4 0.5-0.6 0.8-0.9 1.1-1.8 2.3-2.6 3.4 0 0.1-0.1 0.1-0.1 0.2-11.4 15.3-20.5 32-27.1 49.6-0.1 0.2-0.2 0.4-0.2 0.7-0.5 1.2-0.9 2.4-1.3 3.6-0.4 1.1-0.7 2.1-1.1 3.2-0.1 0.4-0.3 0.8-0.4 1.1-6.5 19.9-10.1 41.2-10.1 63.3 0 112.6 91.6 204.2 204.2 204.2S473 867.8 473 755.2c0-1.5 0-3.1-0.1-4.6V574.4z m-48.7 169.5c0.3 3.8 0.4 7.7 0.4 11.4 0 86.1-70 156.1-156.1 156.1s-156.1-70-156.1-156.1c0-84.4 68.7-154.5 153.1-156.1H424v143c0.1 0.6 0.1 1.2 0.1 1.7zM760.2 551.3c-0.7-0.1-1.3-0.1-2-0.1H575.1c-13.3 0-24 10.7-24 24v166.1c-0.3 4.7-0.5 9.4-0.5 14 0 112.5 91.6 204.1 204.1 204.1s204.1-91.6 204.1-204.1c0-53.8-20.8-104.6-58.5-143-37.3-37.9-87-59.6-140.1-61z m-5.5 360.1c-86.1 0-156.1-70-156.1-156.1 0-3.7 0.1-7.6 0.4-11.4 0-0.6 0.1-1.2 0.1-1.7v-143h158.6c84.4 1.6 153.1 71.6 153.1 156.1 0 86.1-70 156.1-156.1 156.1z" p-id="3498">
	</path>
</svg>
