<?xml version="1.0" standalone="no"?><!DOCTYPE svg PUBLIC "-//W3C//DTD SVG 1.1//EN" "http://www.w3.org/Graphics/SVG/1.1/DTD/svg11.dtd"><svg t="1677847320436" class="icon" viewBox="0 0 1024 1024" version="1.1" xmlns="http://www.w3.org/2000/svg" p-id="5501" xmlns:xlink="http://www.w3.org/1999/xlink" width="16" height="16"><path d="M955.777 343.887c-16.301-79.474-83.544-134.493-167.092-134.493-6.114 0-14.262 2.04-22.415 2.04-63.168 8.153-122.261 63.168-134.489 122.266-2.038 12.224 8.149 32.604 18.34 38.713 4.075 2.038 10.189 4.078 14.264 4.078 10.189 0 20.376-8.153 26.49-22.416 2.038-4.075 2.038-6.114 4.075-10.189 0-4.078 2.04-8.153 4.078-12.227 16.302-36.678 52.98-59.094 93.732-59.094 14.267 0 26.49 4.075 38.718 8.148 50.946 20.382 77.435 77.435 61.133 128.38-14.262 46.868-55.02 73.357-112.073 73.357H104.01c-6.113 0-14.263 0-20.376 4.074-8.153 6.114-18.34 20.381-18.34 30.569 0 12.227 14.262 22.417 22.415 26.49 6.113 2.04 10.189 2.04 14.263 2.04 4.078 0 6.114 0 6.114-4.08h666.336c18.336 0 36.678 0 55.02-4.074 89.658-20.375 142.637-103.924 126.335-193.582zM637.893 643.434H104.008c-6.113 0-12.228 0-18.34 4.074-8.15 6.113-18.339 18.342-18.339 28.53s12.224 22.416 20.377 26.49c6.113 4.075 12.227 4.075 16.302 4.075h489.054c20.376 0 46.867 0 71.322 2.04 22.415 2.034 42.792 14.261 55.02 32.603 14.262 18.337 18.335 40.752 12.226 63.168-10.192 34.643-32.603 55.019-65.207 59.094h-14.266c-28.529 0-50.945-14.262-67.246-40.752-6.11-12.228-16.303-24.455-30.566-24.455-6.113 0-12.227 2.04-18.34 6.113-26.49 16.301-12.224 40.756-6.11 50.945 24.451 44.827 73.357 71.322 124.3 71.322 18.337 0 34.64-2.041 50.94-6.115 63.174-22.416 101.891-89.662 89.664-156.905-14.263-75.4-71.322-120.227-156.906-120.227z" p-id="5503"></path></svg>